<mxfile host="app.diagrams.net" modified="2023-10-30T17:13:36.681Z" agent="Mozilla/5.0 (X11; Linux x86_64; rv:109.0) Gecko/20100101 Firefox/114.0" version="22.0.8" etag="kroBQ4pP53ft45azMSBq" type="github">
  <diagram name="PÃ¡gina-1" id="6qpKYyu-lzaX0EOpxzgo">
    <mxGraphModel>
      <root>
        <mxCell id="0" />
        <mxCell id="1" parent="0" />
      </root>
    </mxGraphModel>
  </diagram>
</mxfile>
